<svg width="174" height="40" viewBox="0 0 174 40" fill="none" xmlns="http://www.w3.org/2000/svg">
<path d="M22.0246 32.1115C22.0606 28.4401 21.1298 25.4545 19.9458 25.4429C18.7617 25.4314 17.7727 28.3983 17.7369 32.0696C17.701 35.7411 18.6318 38.7267 19.8158 38.7383C20.9998 38.7499 21.9888 35.783 22.0246 32.1115Z" fill="#640EF1"/>
<path d="M15.1576 31.2777C17.1728 28.2086 18.0041 25.1937 17.0144 24.5438C16.0245 23.8939 13.5884 25.855 11.5732 28.9241C9.55797 31.9933 8.72669 35.0081 9.71645 35.6581C10.7063 36.308 13.1423 34.3469 15.1576 31.2777Z" fill="#640EF1"/>
<path d="M9.82334 26.8744C13.1781 25.3822 15.5074 23.2955 15.0261 22.2136C14.5449 21.1316 11.4353 21.4643 8.08062 22.9565C4.72593 24.4487 2.39655 26.5354 2.87779 27.6173C3.35902 28.6992 6.46865 28.3666 9.82334 26.8744Z" fill="#640EF1"/>
<path d="M14.6235 19.1795C14.8037 18.0092 12.0079 16.6076 8.37911 16.0491C4.75022 15.4905 1.66243 15.9865 1.4823 17.1568C1.30217 18.3272 4.09791 19.7286 7.72678 20.2872C11.3556 20.8457 14.4434 20.3497 14.6235 19.1795Z" fill="#640EF1"/>
<path d="M15.9264 16.3917C16.7106 15.5045 15.116 12.8142 12.3649 10.3827C9.61375 7.9513 6.74784 6.6995 5.9637 7.58674C5.17956 8.47401 6.77412 11.1643 9.52527 13.5958C12.2764 16.0272 15.1423 17.279 15.9264 16.3917Z" fill="#640EF1"/>
<path d="M18.5211 14.7623C19.6605 14.4399 19.7737 11.3146 18.774 7.7817C17.7743 4.24883 16.0402 1.64624 14.9009 1.96865C13.7615 2.29106 13.6483 5.41637 14.648 8.94927C15.6477 12.4821 17.3818 15.0847 18.5211 14.7623Z" fill="#640EF1"/>
<path d="M25.5667 9.05921C26.6359 5.54673 26.5844 2.41979 25.4516 2.07498C24.3188 1.73017 22.5338 4.29805 21.4646 7.81053C20.3954 11.323 20.447 14.4499 21.5798 14.7947C22.7126 15.1395 24.4976 12.5717 25.5667 9.05921Z" fill="#640EF1"/>
<path d="M30.6011 13.8053C33.3993 11.4281 35.0462 8.76948 34.2795 7.8671C33.5128 6.9647 30.623 8.16028 27.8249 10.5374C25.0267 12.9146 23.3799 15.5732 24.1466 16.4756C24.9132 17.378 27.8031 16.1825 30.6011 13.8053Z" fill="#640EF1"/>
<path d="M32.2658 20.5215C35.905 20.0347 38.7278 18.6886 38.5707 17.5149C38.4138 16.3413 35.3363 15.7846 31.6971 16.2714C28.058 16.7583 25.2351 18.1043 25.3922 19.278C25.5492 20.4516 28.6266 21.0084 32.2658 20.5215Z" fill="#640EF1"/>
<path d="M36.9603 27.9528C37.4628 26.8806 35.175 24.7484 31.8504 23.1903C28.5258 21.6322 25.4234 21.2384 24.9209 22.3105C24.4184 23.3828 26.7062 25.515 30.0308 27.0731C33.3554 28.6311 36.4579 29.025 36.9603 27.9528Z" fill="#640EF1"/>
<path d="M29.9671 35.864C30.9695 35.2338 30.1978 32.203 28.2435 29.0948C26.2892 25.9866 23.8922 23.9778 22.8898 24.6081C21.8874 25.2383 22.6591 28.269 24.6134 31.3773C26.5678 34.4855 28.9647 36.4943 29.9671 35.864Z" fill="#640EF1"/>
<path d="M70.5 14.376L66.496 30H61.148L58.32 19.528L55.464 30H50.116L46.112 14.376H50.9L52.972 25.632L55.884 14.376H60.98L63.976 25.66L66.048 14.376H70.5ZM87.074 21.768C87.074 22.16 87.0274 22.5893 86.934 23.056H76.098C76.154 24.232 76.4527 25.0813 76.994 25.604C77.5354 26.108 78.226 26.36 79.066 26.36C79.7754 26.36 80.3634 26.1827 80.83 25.828C81.2967 25.4733 81.6047 25.016 81.754 24.456H86.822C86.6167 25.5573 86.1687 26.5467 85.478 27.424C84.7874 28.2827 83.91 28.964 82.846 29.468C81.782 29.9533 80.5967 30.196 79.29 30.196C77.7594 30.196 76.3967 29.8787 75.202 29.244C74.026 28.5907 73.102 27.6573 72.43 26.444C71.758 25.2307 71.422 23.812 71.422 22.188C71.422 20.5453 71.7487 19.1267 72.402 17.932C73.074 16.7187 74.0074 15.7947 75.202 15.16C76.3967 14.5067 77.7594 14.18 79.29 14.18C80.8394 14.18 82.202 14.4973 83.378 15.132C84.554 15.7667 85.4594 16.6627 86.094 17.82C86.7474 18.9587 87.074 20.2747 87.074 21.768ZM82.23 21.04C82.2487 20.0133 81.9687 19.248 81.39 18.744C80.83 18.2213 80.13 17.96 79.29 17.96C78.4127 17.96 77.6847 18.2213 77.106 18.744C76.5274 19.2667 76.2007 20.032 76.126 21.04H82.23ZM95.254 14.18C97.2326 14.18 98.81 14.6747 99.986 15.664C101.181 16.6533 101.927 17.96 102.226 19.584H97.746C97.6153 18.9493 97.3166 18.4547 96.85 18.1C96.402 17.7267 95.8326 17.54 95.142 17.54C94.6006 17.54 94.19 17.6613 93.91 17.904C93.63 18.128 93.49 18.4547 93.49 18.884C93.49 19.3693 93.742 19.7333 94.246 19.976C94.7686 20.2187 95.5806 20.4613 96.682 20.704C97.8766 20.984 98.8566 21.2733 99.622 21.572C100.387 21.852 101.05 22.3187 101.61 22.972C102.17 23.6253 102.45 24.5027 102.45 25.604C102.45 26.5 102.207 27.2933 101.722 27.984C101.237 28.6747 100.537 29.216 99.622 29.608C98.7073 30 97.6246 30.196 96.374 30.196C94.2646 30.196 92.5753 29.7293 91.306 28.796C90.0366 27.8627 89.262 26.528 88.982 24.792H93.602C93.6766 25.464 93.9566 25.9773 94.442 26.332C94.946 26.6867 95.59 26.864 96.374 26.864C96.9153 26.864 97.326 26.7427 97.606 26.5C97.886 26.2387 98.026 25.9027 98.026 25.492C98.026 24.9507 97.7646 24.568 97.242 24.344C96.738 24.1013 95.9073 23.8493 94.75 23.588C93.5926 23.3453 92.6406 23.084 91.894 22.804C91.1473 22.524 90.5033 22.076 89.962 21.46C89.4206 20.8253 89.15 19.9667 89.15 18.884C89.15 17.484 89.682 16.3547 90.746 15.496C91.81 14.6187 93.3126 14.18 95.254 14.18ZM119.941 21.768C119.941 22.16 119.895 22.5893 119.801 23.056H108.965C109.021 24.232 109.32 25.0813 109.861 25.604C110.403 26.108 111.093 26.36 111.933 26.36C112.643 26.36 113.231 26.1827 113.697 25.828C114.164 25.4733 114.472 25.016 114.621 24.456H119.689C119.484 25.5573 119.036 26.5467 118.345 27.424C117.655 28.2827 116.777 28.964 115.713 29.468C114.649 29.9533 113.464 30.196 112.157 30.196C110.627 30.196 109.264 29.8787 108.069 29.244C106.893 28.5907 105.969 27.6573 105.297 26.444C104.625 25.2307 104.289 23.812 104.289 22.188C104.289 20.5453 104.616 19.1267 105.269 17.932C105.941 16.7187 106.875 15.7947 108.069 15.16C109.264 14.5067 110.627 14.18 112.157 14.18C113.707 14.18 115.069 14.4973 116.245 15.132C117.421 15.7667 118.327 16.6627 118.961 17.82C119.615 18.9587 119.941 20.2747 119.941 21.768ZM115.097 21.04C115.116 20.0133 114.836 19.248 114.257 18.744C113.697 18.2213 112.997 17.96 112.157 17.96C111.28 17.96 110.552 18.2213 109.973 18.744C109.395 19.2667 109.068 20.032 108.993 21.04H115.097ZM127.225 17.316C127.822 16.364 128.588 15.608 129.521 15.048C130.473 14.488 131.5 14.208 132.601 14.208V19.332H131.229C129.96 19.332 128.97 19.6027 128.261 20.144C127.57 20.6853 127.225 21.6 127.225 22.888V30H122.437V14.376H127.225V17.316ZM141.829 25.324L145.217 14.376H150.313L144.769 30H138.833L133.289 14.376H138.385L141.829 25.324ZM167.137 21.768C167.137 22.16 167.09 22.5893 166.997 23.056H156.161C156.217 24.232 156.515 25.0813 157.057 25.604C157.598 26.108 158.289 26.36 159.129 26.36C159.838 26.36 160.426 26.1827 160.893 25.828C161.359 25.4733 161.667 25.016 161.817 24.456H166.885C166.679 25.5573 166.231 26.5467 165.541 27.424C164.85 28.2827 163.973 28.964 162.909 29.468C161.845 29.9533 160.659 30.196 159.353 30.196C157.822 30.196 156.459 29.8787 155.265 29.244C154.089 28.5907 153.165 27.6573 152.493 26.444C151.821 25.2307 151.485 23.812 151.485 22.188C151.485 20.5453 151.811 19.1267 152.465 17.932C153.137 16.7187 154.07 15.7947 155.265 15.16C156.459 14.5067 157.822 14.18 159.353 14.18C160.902 14.18 162.265 14.4973 163.441 15.132C164.617 15.7667 165.522 16.6627 166.157 17.82C166.81 18.9587 167.137 20.2747 167.137 21.768ZM162.293 21.04C162.311 20.0133 162.031 19.248 161.453 18.744C160.893 18.2213 160.193 17.96 159.353 17.96C158.475 17.96 157.747 18.2213 157.169 18.744C156.59 19.2667 156.263 20.032 156.189 21.04H162.293ZM173.748 25.212V30H168.792V25.212H173.748Z" fill="white"/>
</svg>
